<?xml version="1.0" standalone="yes"?>
<!-- SVG graphic -->
<svg xmlns='http://www.w3.org/2000/svg' xmlns:xlink='http://www.w3.org/1999/xlink'
 version="1.1">
<rect x="0" y="0" width="6" height="200" stroke="black" stroke-width="1" fill="blue" tooltip="enable"><title>(0,77079)</title></rect><rect x="6" y="100.245" width="6" height="99.7548" stroke="black" stroke-width="1" fill="blue" tooltip="enable"><title>(0.0912424,38445)</title></rect><rect x="12" y="130.477" width="6" height="69.5235" stroke="black" stroke-width="1" fill="blue" tooltip="enable"><title>(0.182485,26794)</title></rect><rect x="18" y="151.587" width="6" height="48.4127" stroke="black" stroke-width="1" fill="blue" tooltip="enable"><title>(0.273727,18658)</title></rect><rect x="24" y="166.626" width="6" height="33.3736" stroke="black" stroke-width="1" fill="blue" tooltip="enable"><title>(0.364969,12862)</title></rect><rect x="30" y="176.92" width="6" height="23.0802" stroke="black" stroke-width="1" fill="blue" tooltip="enable"><title>(0.456212,8895)</title></rect><rect x="36" y="183.562" width="6" height="16.4377" stroke="black" stroke-width="1" fill="blue" tooltip="enable"><title>(0.547454,6335)</title></rect><rect x="42" y="188.433" width="6" height="11.5674" stroke="black" stroke-width="1" fill="blue" tooltip="enable"><title>(0.638697,4458)</title></rect><rect x="48" y="191.671" width="6" height="8.32912" stroke="black" stroke-width="1" fill="blue" tooltip="enable"><title>(0.729939,3210)</title></rect><rect x="54" y="194.227" width="6" height="5.7733" stroke="black" stroke-width="1" fill="blue" tooltip="enable"><title>(0.821181,2225)</title></rect><rect x="60" y="195.402" width="6" height="4.59788" stroke="black" stroke-width="1" fill="blue" tooltip="enable"><title>(0.912424,1772)</title></rect><rect x="66" y="196.834" width="6" height="3.16558" stroke="black" stroke-width="1" fill="blue" tooltip="enable"><title>(1.00367,1220)</title></rect><rect x="72" y="197.491" width="6" height="2.50911" stroke="black" stroke-width="1" fill="blue" tooltip="enable"><title>(1.09491,967)</title></rect><rect x="78" y="197.999" width="6" height="2.00054" stroke="black" stroke-width="1" fill="blue" tooltip="enable"><title>(1.18615,771)</title></rect><rect x="84" y="198.586" width="6" height="1.41413" stroke="black" stroke-width="1" fill="blue" tooltip="enable"><title>(1.27739,545)</title></rect><rect x="90" y="198.713" width="6" height="1.28699" stroke="black" stroke-width="1" fill="blue" tooltip="enable"><title>(1.36864,496)</title></rect><rect x="96" y="199.001" width="6" height="0.998975" stroke="black" stroke-width="1" fill="blue" tooltip="enable"><title>(1.45988,385)</title></rect><rect x="102" y="199.183" width="6" height="0.817343" stroke="black" stroke-width="1" fill="blue" tooltip="enable"><title>(1.55112,315)</title></rect><rect x="108" y="199.325" width="6" height="0.674632" stroke="black" stroke-width="1" fill="blue" tooltip="enable"><title>(1.64236,260)</title></rect><rect x="114" y="199.427" width="6" height="0.573438" stroke="black" stroke-width="1" fill="blue" tooltip="enable"><title>(1.73361,221)</title></rect><rect x="120" y="199.536" width="6" height="0.464459" stroke="black" stroke-width="1" fill="blue" tooltip="enable"><title>(1.82485,179)</title></rect><rect x="126" y="199.554" width="6" height="0.446295" stroke="black" stroke-width="1" fill="blue" tooltip="enable"><title>(1.91609,172)</title></rect><rect x="132" y="199.67" width="6" height="0.329532" stroke="black" stroke-width="1" fill="blue" tooltip="enable"><title>(2.00733,127)</title></rect><rect x="138" y="199.67" width="6" height="0.329532" stroke="black" stroke-width="1" fill="blue" tooltip="enable"><title>(2.09857,127)</title></rect><rect x="144" y="199.746" width="6" height="0.254285" stroke="black" stroke-width="1" fill="blue" tooltip="enable"><title>(2.18982,98)</title></rect><rect x="150" y="199.782" width="6" height="0.217958" stroke="black" stroke-width="1" fill="blue" tooltip="enable"><title>(2.28106,84)</title></rect><rect x="156" y="199.811" width="6" height="0.189416" stroke="black" stroke-width="1" fill="blue" tooltip="enable"><title>(2.3723,73)</title></rect><rect x="162" y="199.785" width="6" height="0.215363" stroke="black" stroke-width="1" fill="blue" tooltip="enable"><title>(2.46354,83)</title></rect><rect x="168" y="199.868" width="6" height="0.132332" stroke="black" stroke-width="1" fill="blue" tooltip="enable"><title>(2.55479,51)</title></rect><rect x="174" y="199.868" width="6" height="0.132332" stroke="black" stroke-width="1" fill="blue" tooltip="enable"><title>(2.64603,51)</title></rect><rect x="180" y="199.907" width="6" height="0.0934107" stroke="black" stroke-width="1" fill="blue" tooltip="enable"><title>(2.73727,36)</title></rect><rect x="186" y="199.891" width="6" height="0.108979" stroke="black" stroke-width="1" fill="blue" tooltip="enable"><title>(2.82851,42)</title></rect><rect x="192" y="199.904" width="6" height="0.0960054" stroke="black" stroke-width="1" fill="blue" tooltip="enable"><title>(2.91976,37)</title></rect><rect x="198" y="199.896" width="6" height="0.10379" stroke="black" stroke-width="1" fill="blue" tooltip="enable"><title>(3.011,40)</title></rect><rect x="204" y="199.925" width="6" height="0.0752475" stroke="black" stroke-width="1" fill="blue" tooltip="enable"><title>(3.10224,29)</title></rect><rect x="210" y="199.966" width="6" height="0.0337316" stroke="black" stroke-width="1" fill="blue" tooltip="enable"><title>(3.19348,13)</title></rect><rect x="216" y="199.943" width="6" height="0.0570843" stroke="black" stroke-width="1" fill="blue" tooltip="enable"><title>(3.28473,22)</title></rect><rect x="222" y="199.956" width="6" height="0.0441106" stroke="black" stroke-width="1" fill="blue" tooltip="enable"><title>(3.37597,17)</title></rect><rect x="228" y="199.953" width="6" height="0.0467053" stroke="black" stroke-width="1" fill="blue" tooltip="enable"><title>(3.46721,18)</title></rect><rect x="234" y="199.948" width="6" height="0.0518948" stroke="black" stroke-width="1" fill="blue" tooltip="enable"><title>(3.55845,20)</title></rect><rect x="240" y="199.977" width="6" height="0.0233527" stroke="black" stroke-width="1" fill="blue" tooltip="enable"><title>(3.64969,9)</title></rect><rect x="246" y="199.956" width="6" height="0.0441106" stroke="black" stroke-width="1" fill="blue" tooltip="enable"><title>(3.74094,17)</title></rect><rect x="252" y="199.953" width="6" height="0.0467053" stroke="black" stroke-width="1" fill="blue" tooltip="enable"><title>(3.83218,18)</title></rect><rect x="258" y="199.956" width="6" height="0.0441106" stroke="black" stroke-width="1" fill="blue" tooltip="enable"><title>(3.92342,17)</title></rect><rect x="264" y="199.971" width="6" height="0.0285421" stroke="black" stroke-width="1" fill="blue" tooltip="enable"><title>(4.01466,11)</title></rect><rect x="270" y="199.964" width="6" height="0.0363264" stroke="black" stroke-width="1" fill="blue" tooltip="enable"><title>(4.10591,14)</title></rect><rect x="276" y="199.977" width="6" height="0.0233527" stroke="black" stroke-width="1" fill="blue" tooltip="enable"><title>(4.19715,9)</title></rect><rect x="282" y="199.984" width="6" height="0.0155684" stroke="black" stroke-width="1" fill="blue" tooltip="enable"><title>(4.28839,6)</title></rect><rect x="288" y="199.977" width="6" height="0.0233527" stroke="black" stroke-width="1" fill="blue" tooltip="enable"><title>(4.37963,9)</title></rect><rect x="294" y="199.979" width="6" height="0.0207579" stroke="black" stroke-width="1" fill="blue" tooltip="enable"><title>(4.47088,8)</title></rect><rect x="300" y="199.987" width="6" height="0.0129737" stroke="black" stroke-width="1" fill="blue" tooltip="enable"><title>(4.56212,5)</title></rect><rect x="306" y="199.979" width="6" height="0.0207579" stroke="black" stroke-width="1" fill="blue" tooltip="enable"><title>(4.65336,8)</title></rect><rect x="312" y="199.995" width="6" height="0.00518948" stroke="black" stroke-width="1" fill="blue" tooltip="enable"><title>(4.7446,2)</title></rect><rect x="318" y="199.982" width="6" height="0.0181632" stroke="black" stroke-width="1" fill="blue" tooltip="enable"><title>(4.83585,7)</title></rect><rect x="324" y="199.987" width="6" height="0.0129737" stroke="black" stroke-width="1" fill="blue" tooltip="enable"><title>(4.92709,5)</title></rect><rect x="330" y="199.992" width="6" height="0.00778422" stroke="black" stroke-width="1" fill="blue" tooltip="enable"><title>(5.01833,3)</title></rect><rect x="336" y="199.99" width="6" height="0.010379" stroke="black" stroke-width="1" fill="blue" tooltip="enable"><title>(5.10957,4)</title></rect><rect x="342" y="199.984" width="6" height="0.0155684" stroke="black" stroke-width="1" fill="blue" tooltip="enable"><title>(5.20082,6)</title></rect><rect x="348" y="199.987" width="6" height="0.0129737" stroke="black" stroke-width="1" fill="blue" tooltip="enable"><title>(5.29206,5)</title></rect><rect x="354" y="199.982" width="6" height="0.0181632" stroke="black" stroke-width="1" fill="blue" tooltip="enable"><title>(5.3833,7)</title></rect><rect x="360" y="199.979" width="6" height="0.0207579" stroke="black" stroke-width="1" fill="blue" tooltip="enable"><title>(5.47454,8)</title></rect><rect x="366" y="199.997" width="6" height="0.00259474" stroke="black" stroke-width="1" fill="blue" tooltip="enable"><title>(5.56578,1)</title></rect><rect x="372" y="199.99" width="6" height="0.010379" stroke="black" stroke-width="1" fill="blue" tooltip="enable"><title>(5.65703,4)</title></rect><rect x="378" y="199.995" width="6" height="0.00518948" stroke="black" stroke-width="1" fill="blue" tooltip="enable"><title>(5.74827,2)</title></rect><rect x="384" y="199.99" width="6" height="0.010379" stroke="black" stroke-width="1" fill="blue" tooltip="enable"><title>(5.83951,4)</title></rect><rect x="390" y="199.995" width="6" height="0.00518948" stroke="black" stroke-width="1" fill="blue" tooltip="enable"><title>(5.93075,2)</title></rect><rect x="396" y="199.992" width="6" height="0.00778422" stroke="black" stroke-width="1" fill="blue" tooltip="enable"><title>(6.022,3)</title></rect><rect x="402" y="199.997" width="6" height="0.00259474" stroke="black" stroke-width="1" fill="blue" tooltip="enable"><title>(6.11324,1)</title></rect><rect x="408" y="199.995" width="6" height="0.00518948" stroke="black" stroke-width="1" fill="blue" tooltip="enable"><title>(6.20448,2)</title></rect><rect x="414" y="199.995" width="6" height="0.00518948" stroke="black" stroke-width="1" fill="blue" tooltip="enable"><title>(6.29572,2)</title></rect><rect x="420" y="199.997" width="6" height="0.00259474" stroke="black" stroke-width="1" fill="blue" tooltip="enable"><title>(6.38697,1)</title></rect><rect x="426" y="199.995" width="6" height="0.00518948" stroke="black" stroke-width="1" fill="blue" tooltip="enable"><title>(6.47821,2)</title></rect><rect x="432" y="199.992" width="6" height="0.00778422" stroke="black" stroke-width="1" fill="blue" tooltip="enable"><title>(6.56945,3)</title></rect><rect x="438" y="199.997" width="6" height="0.00259474" stroke="black" stroke-width="1" fill="blue" tooltip="enable"><title>(6.66069,1)</title></rect><rect x="444" y="200" width="6" height="0" stroke="black" stroke-width="1" fill="blue" tooltip="enable"><title>(6.75194,0)</title></rect><rect x="450" y="200" width="6" height="0" stroke="black" stroke-width="1" fill="blue" tooltip="enable"><title>(6.84318,0)</title></rect><rect x="456" y="200" width="6" height="0" stroke="black" stroke-width="1" fill="blue" tooltip="enable"><title>(6.93442,0)</title></rect><rect x="462" y="199.997" width="6" height="0.00259474" stroke="black" stroke-width="1" fill="blue" tooltip="enable"><title>(7.02566,1)</title></rect><rect x="468" y="200" width="6" height="0" stroke="black" stroke-width="1" fill="blue" tooltip="enable"><title>(7.1169,0)</title></rect><rect x="474" y="200" width="6" height="0" stroke="black" stroke-width="1" fill="blue" tooltip="enable"><title>(7.20815,0)</title></rect><rect x="480" y="199.997" width="6" height="0.00259474" stroke="black" stroke-width="1" fill="blue" tooltip="enable"><title>(7.29939,1)</title></rect><rect x="486" y="200" width="6" height="0" stroke="black" stroke-width="1" fill="blue" tooltip="enable"><title>(7.39063,0)</title></rect><rect x="492" y="200" width="6" height="0" stroke="black" stroke-width="1" fill="blue" tooltip="enable"><title>(7.48187,0)</title></rect><rect x="498" y="199.997" width="6" height="0.00259474" stroke="black" stroke-width="1" fill="blue" tooltip="enable"><title>(7.57312,1)</title></rect><rect x="504" y="199.997" width="6" height="0.00259474" stroke="black" stroke-width="1" fill="blue" tooltip="enable"><title>(7.66436,1)</title></rect><rect x="510" y="200" width="6" height="0" stroke="black" stroke-width="1" fill="blue" tooltip="enable"><title>(7.7556,0)</title></rect><rect x="516" y="200" width="6" height="0" stroke="black" stroke-width="1" fill="blue" tooltip="enable"><title>(7.84684,0)</title></rect><rect x="522" y="200" width="6" height="0" stroke="black" stroke-width="1" fill="blue" tooltip="enable"><title>(7.93809,0)</title></rect><rect x="528" y="199.997" width="6" height="0.00259474" stroke="black" stroke-width="1" fill="blue" tooltip="enable"><title>(8.02933,1)</title></rect><rect x="534" y="199.997" width="6" height="0.00259474" stroke="black" stroke-width="1" fill="blue" tooltip="enable"><title>(8.12057,1)</title></rect><rect x="540" y="199.995" width="6" height="0.00518948" stroke="black" stroke-width="1" fill="blue" tooltip="enable"><title>(8.21181,2)</title></rect><rect x="546" y="200" width="6" height="0" stroke="black" stroke-width="1" fill="blue" tooltip="enable"><title>(8.30306,0)</title></rect><rect x="552" y="200" width="6" height="0" stroke="black" stroke-width="1" fill="blue" tooltip="enable"><title>(8.3943,0)</title></rect><rect x="558" y="199.997" width="6" height="0.00259474" stroke="black" stroke-width="1" fill="blue" tooltip="enable"><title>(8.48554,1)</title></rect><rect x="564" y="200" width="6" height="0" stroke="black" stroke-width="1" fill="blue" tooltip="enable"><title>(8.57678,0)</title></rect><rect x="570" y="200" width="6" height="0" stroke="black" stroke-width="1" fill="blue" tooltip="enable"><title>(8.66803,0)</title></rect><rect x="576" y="200" width="6" height="0" stroke="black" stroke-width="1" fill="blue" tooltip="enable"><title>(8.75927,0)</title></rect><rect x="582" y="200" width="6" height="0" stroke="black" stroke-width="1" fill="blue" tooltip="enable"><title>(8.85051,0)</title></rect><rect x="588" y="200" width="6" height="0" stroke="black" stroke-width="1" fill="blue" tooltip="enable"><title>(8.94175,0)</title></rect><rect x="594" y="199.997" width="6" height="0.00259474" stroke="black" stroke-width="1" fill="blue" tooltip="enable"><title>(9.033,1)</title></rect><text x="30" y="240" font-size="20" fill="black">0</text>
<text x="600" y="240" font-size="20" fill="black">9.12424</text>
<polyline points="0,220,600,220" stroke="black" stroke-width="1" fill="none"/>
<text x="720" y="20" font-size="20" fill="black">77079</text>
<text x="720" y="200" font-size="20" fill="black">0</text>
<polyline points="660,0,660,200" stroke="black" stroke-width="1" fill="none"/>
</svg>